<svg xmlns="http://www.w3.org/2000/svg" xmlns:xlink="http://www.w3.org/1999/xlink" id="terminal" baseProfile="full" viewBox="0 0 1528 784" width="1528" version="1.1">
    <defs>
        <termtosvg:template_settings xmlns:termtosvg="https://github.com/nbedos/termtosvg">
            <termtosvg:screen_geometry columns="191" rows="46"/>
            <termtosvg:animation type="css"/>
        </termtosvg:template_settings>
        <style type="text/css" id="generated-style"><![CDATA[#screen {
                font-family: 'DejaVu Sans Mono', monospace;
                font-style: normal;
                font-size: 14px;
            }

        text {
            dominant-baseline: text-before-edge;
            white-space: pre;
        }
    
            :root {
                --animation-duration: 9404ms;
            }

            @keyframes roll {
                0.000%{transform:translateY(0px)}
2.180%{transform:translateY(-816px)}
2.446%{transform:translateY(-1632px)}
2.807%{transform:translateY(-2448px)}
21.735%{transform:translateY(-3264px)}
21.789%{transform:translateY(-4080px)}
26.170%{transform:translateY(-4896px)}
35.708%{transform:translateY(-5712px)}
36.346%{transform:translateY(-6528px)}
36.463%{transform:translateY(-7344px)}
41.961%{transform:translateY(-8160px)}
41.982%{transform:translateY(-8976px)}
45.895%{transform:translateY(-9792px)}
45.927%{transform:translateY(-10608px)}
48.501%{transform:translateY(-11424px)}
48.554%{transform:translateY(-12240px)}
48.607%{transform:translateY(-13056px)}
48.681%{transform:translateY(-13872px)}
53.562%{transform:translateY(-14688px)}
53.626%{transform:translateY(-15504px)}
53.701%{transform:translateY(-16320px)}
53.828%{transform:translateY(-17136px)}
53.913%{transform:translateY(-17952px)}
53.998%{transform:translateY(-18768px)}
54.094%{transform:translateY(-19584px)}
54.232%{transform:translateY(-20400px)}
55.647%{transform:translateY(-21216px)}
55.710%{transform:translateY(-22032px)}
56.657%{transform:translateY(-22848px)}
56.710%{transform:translateY(-23664px)}
57.422%{transform:translateY(-24480px)}
57.465%{transform:translateY(-25296px)}
100.000%{transform:translateY(-25296px)}
            }

            #screen_view {
                animation-duration: 9404ms;
                animation-iteration-count:infinite;
                animation-name:roll;
                animation-timing-function: steps(1,end);
                animation-fill-mode: forwards;
            }
        ]]></style>
        <style type="text/css" id="user-style">
            /* The colors defined below are the default 16 colors used for rendering text of the terminal. Adjust
               them as needed.
               PowerShell colors based on https://en.wikipedia.org/wiki/ANSI_escape_code#Colors */
            .foreground {fill: #cccccc;}
            .background {fill: #0c0c0c;}
            .color0 {fill: #0c0c0c;}
            .color1 {fill: #c50f1f;}
            .color2 {fill: #13a10e;}
            .color3 {fill: #c19c00;}
            .color4 {fill: #0037da;}
            .color5 {fill: #881798;}
            .color6 {fill: #3a96dd;}
            .color7 {fill: #cccccc;}
            .color8 {fill: #767676;}
            .color9 {fill: #e74856;}
            .color10 {fill: #16c60c;}
            .color11 {fill: #f9f1a5;}
            .color12 {fill: #3b78ff;}
            .color13 {fill: #b4009e;}
            .color14 {fill: #61d6d6;}
            .color15 {fill: #f2f2f2;}
        </style>
    </defs>
    <svg id="screen" width="1528" height="782" viewBox="0 0 1528 782" preserveAspectRatio="xMidYMin slice">
    <rect class="background" height="100%" width="100%" x="0" y="0"/><defs><g id="g1"><text x="0" textLength="40" font-weight="bold" class="color12">==== </text><text x="40" textLength="144" font-weight="bold" class="color14">Configuring spoon </text><text x="184" textLength="32" font-weight="bold" class="color12">====</text></g><g id="g2"><text x="0" textLength="8" class="background"> </text></g><g id="g3"><text x="0" textLength="16" class="foreground">  </text><text x="16" textLength="40" font-weight="bold" class="color12">==== </text><text x="56" textLength="96" font-weight="bold" class="color14">Parsing POM </text><text x="152" textLength="32" font-weight="bold" class="color12">====</text></g><g id="g4"><text x="0" textLength="200" class="foreground">  Successfully parsed POM</text></g><g id="g5"><text x="0" textLength="16" class="foreground">  </text><text x="16" textLength="40" font-weight="bold" class="color12">==== </text><text x="56" textLength="224" font-weight="bold" class="color14">Building classpath from POM </text><text x="280" textLength="32" font-weight="bold" class="color12">====</text></g><g id="g6"><text x="0" textLength="976" class="foreground">[WARN] Maven will be executed in interactive mode, but no input stream has been configured for this MavenInvoker instance.</text></g><g id="g7"><text x="0" textLength="240" class="foreground">  Classpath successfully built</text></g><g id="g8"><text x="0" textLength="232" class="foreground">Spoon successfully configured</text></g><g id="g9"><text x="0" textLength="40" font-weight="bold" class="color12">==== </text><text x="40" textLength="168" font-weight="bold" class="color14">Building spoon model </text><text x="208" textLength="32" font-weight="bold" class="color12">====</text></g><g id="g10"><text x="0" textLength="176" class="foreground">Starting phase COMPILE</text></g><g id="g11"><text x="0" textLength="344" class="foreground">Phase COMPILE done! Discovered Classes: 104</text></g><g id="g12"><text x="0" textLength="176" class="foreground">Starting phase COMMENT</text></g><g id="g13"><text x="0" textLength="344" class="foreground">Phase COMMENT done! Discovered Classes: 104</text></g><g id="g14"><text x="0" textLength="160" class="foreground">Starting phase MODEL</text></g><g id="g15"><text x="0" textLength="328" class="foreground">Phase MODEL done! Discovered Classes: 104</text></g><g id="g16"><text x="0" textLength="168" class="foreground">Starting phase IMPORT</text></g><g id="g17"><text x="0" textLength="336" class="foreground">Phase IMPORT done! Discovered Classes: 104</text></g><g id="g18"><text x="0" textLength="240" class="foreground">Starting phase COMMENT_LINKING</text></g><g id="g19"><text x="0" textLength="408" class="foreground">Phase COMMENT_LINKING done! Discovered Classes: 104</text></g><g id="g20"><text x="0" textLength="312" class="foreground">Phase MODEL done! Discovered Classes: 0</text></g><g id="g21"><text x="0" textLength="320" class="foreground">Phase IMPORT done! Discovered Classes: 0</text></g><g id="g22"><text x="0" textLength="392" class="foreground">Phase COMMENT_LINKING done! Discovered Classes: 0</text></g><g id="g23"><text x="0" textLength="192" class="foreground">Model successfully built</text></g><g id="g24"><text x="0" textLength="40" font-weight="bold" class="color12">==== </text><text x="40" textLength="192" font-weight="bold" class="color14">Converting Spoon Model  </text><text x="232" textLength="32" font-weight="bold" class="color12">====</text></g><g id="g25"><text x="0" textLength="168" class="foreground">  Element was null :/</text></g><g id="g26"><text x="0" textLength="232" class="foreground"> Indexed 1000 elements so far</text></g><g id="g27"><text x="0" textLength="224" class="foreground">Model successfully converted</text></g><g id="g28"><text x="0" textLength="40" font-weight="bold" class="color12">==== </text><text x="40" textLength="216" font-weight="bold" class="color14">Writing to output database </text><text x="256" textLength="32" font-weight="bold" class="color12">====</text></g></defs><g id="screen_view"><g><use xlink:href="#g1" y="17"/><rect x="0" y="34" width="8" height="17" class="foreground"/><use xlink:href="#g2" y="34"/></g><g><use xlink:href="#g1" y="833"/><use xlink:href="#g3" y="867"/><rect x="0" y="884" width="8" height="17" class="foreground"/><use xlink:href="#g2" y="884"/></g><g><use xlink:href="#g1" y="1649"/><use xlink:href="#g3" y="1683"/><use xlink:href="#g4" y="1700"/><use xlink:href="#g5" y="1734"/><rect x="0" y="1751" width="8" height="17" class="foreground"/><use xlink:href="#g2" y="1751"/></g><g><use xlink:href="#g1" y="2465"/><use xlink:href="#g3" y="2499"/><use xlink:href="#g4" y="2516"/><use xlink:href="#g5" y="2550"/><use xlink:href="#g6" y="2567"/><rect x="0" y="2584" width="8" height="17" class="foreground"/><use xlink:href="#g2" y="2584"/></g><g><use xlink:href="#g1" y="3281"/><use xlink:href="#g3" y="3315"/><use xlink:href="#g4" y="3332"/><use xlink:href="#g5" y="3366"/><use xlink:href="#g6" y="3383"/><use xlink:href="#g7" y="3400"/><use xlink:href="#g8" y="3434"/><rect x="0" y="3468" width="8" height="17" class="foreground"/><use xlink:href="#g2" y="3468"/></g><g><use xlink:href="#g1" y="4097"/><use xlink:href="#g3" y="4131"/><use xlink:href="#g4" y="4148"/><use xlink:href="#g5" y="4182"/><use xlink:href="#g6" y="4199"/><use xlink:href="#g7" y="4216"/><use xlink:href="#g8" y="4250"/><use xlink:href="#g9" y="4301"/><rect x="0" y="4318" width="8" height="17" class="foreground"/><use xlink:href="#g2" y="4318"/></g><g><use xlink:href="#g1" y="4913"/><use xlink:href="#g3" y="4947"/><use xlink:href="#g4" y="4964"/><use xlink:href="#g5" y="4998"/><use xlink:href="#g6" y="5015"/><use xlink:href="#g7" y="5032"/><use xlink:href="#g8" y="5066"/><use xlink:href="#g9" y="5117"/><use xlink:href="#g10" y="5134"/><rect x="0" y="5151" width="8" height="17" class="foreground"/><use xlink:href="#g2" y="5151"/></g><g><use xlink:href="#g1" y="5729"/><use xlink:href="#g3" y="5763"/><use xlink:href="#g4" y="5780"/><use xlink:href="#g5" y="5814"/><use xlink:href="#g6" y="5831"/><use xlink:href="#g7" y="5848"/><use xlink:href="#g8" y="5882"/><use xlink:href="#g9" y="5933"/><use xlink:href="#g10" y="5950"/><use xlink:href="#g11" y="5967"/><use xlink:href="#g12" y="5984"/><rect x="0" y="6001" width="8" height="17" class="foreground"/><use xlink:href="#g2" y="6001"/></g><g><use xlink:href="#g1" y="6545"/><use xlink:href="#g3" y="6579"/><use xlink:href="#g4" y="6596"/><use xlink:href="#g5" y="6630"/><use xlink:href="#g6" y="6647"/><use xlink:href="#g7" y="6664"/><use xlink:href="#g8" y="6698"/><use xlink:href="#g9" y="6749"/><use xlink:href="#g10" y="6766"/><use xlink:href="#g11" y="6783"/><use xlink:href="#g12" y="6800"/><use xlink:href="#g13" y="6817"/><rect x="0" y="6834" width="8" height="17" class="foreground"/><use xlink:href="#g2" y="6834"/></g><g><use xlink:href="#g1" y="7361"/><use xlink:href="#g3" y="7395"/><use xlink:href="#g4" y="7412"/><use xlink:href="#g5" y="7446"/><use xlink:href="#g6" y="7463"/><use xlink:href="#g7" y="7480"/><use xlink:href="#g8" y="7514"/><use xlink:href="#g9" y="7565"/><use xlink:href="#g10" y="7582"/><use xlink:href="#g11" y="7599"/><use xlink:href="#g12" y="7616"/><use xlink:href="#g13" y="7633"/><use xlink:href="#g14" y="7650"/><rect x="0" y="7667" width="8" height="17" class="foreground"/><use xlink:href="#g2" y="7667"/></g><g><use xlink:href="#g1" y="8177"/><use xlink:href="#g3" y="8211"/><use xlink:href="#g4" y="8228"/><use xlink:href="#g5" y="8262"/><use xlink:href="#g6" y="8279"/><use xlink:href="#g7" y="8296"/><use xlink:href="#g8" y="8330"/><use xlink:href="#g9" y="8381"/><use xlink:href="#g10" y="8398"/><use xlink:href="#g11" y="8415"/><use xlink:href="#g12" y="8432"/><use xlink:href="#g13" y="8449"/><use xlink:href="#g14" y="8466"/><use xlink:href="#g15" y="8483"/><rect x="0" y="8500" width="8" height="17" class="foreground"/><use xlink:href="#g2" y="8500"/></g><g><use xlink:href="#g1" y="8993"/><use xlink:href="#g3" y="9027"/><use xlink:href="#g4" y="9044"/><use xlink:href="#g5" y="9078"/><use xlink:href="#g6" y="9095"/><use xlink:href="#g7" y="9112"/><use xlink:href="#g8" y="9146"/><use xlink:href="#g9" y="9197"/><use xlink:href="#g10" y="9214"/><use xlink:href="#g11" y="9231"/><use xlink:href="#g12" y="9248"/><use xlink:href="#g13" y="9265"/><use xlink:href="#g14" y="9282"/><use xlink:href="#g15" y="9299"/><use xlink:href="#g16" y="9316"/><rect x="0" y="9333" width="8" height="17" class="foreground"/><use xlink:href="#g2" y="9333"/></g><g><use xlink:href="#g1" y="9809"/><use xlink:href="#g3" y="9843"/><use xlink:href="#g4" y="9860"/><use xlink:href="#g5" y="9894"/><use xlink:href="#g6" y="9911"/><use xlink:href="#g7" y="9928"/><use xlink:href="#g8" y="9962"/><use xlink:href="#g9" y="10013"/><use xlink:href="#g10" y="10030"/><use xlink:href="#g11" y="10047"/><use xlink:href="#g12" y="10064"/><use xlink:href="#g13" y="10081"/><use xlink:href="#g14" y="10098"/><use xlink:href="#g15" y="10115"/><use xlink:href="#g16" y="10132"/><use xlink:href="#g17" y="10149"/><rect x="0" y="10166" width="8" height="17" class="foreground"/><use xlink:href="#g2" y="10166"/></g><g><use xlink:href="#g1" y="10625"/><use xlink:href="#g3" y="10659"/><use xlink:href="#g4" y="10676"/><use xlink:href="#g5" y="10710"/><use xlink:href="#g6" y="10727"/><use xlink:href="#g7" y="10744"/><use xlink:href="#g8" y="10778"/><use xlink:href="#g9" y="10829"/><use xlink:href="#g10" y="10846"/><use xlink:href="#g11" y="10863"/><use xlink:href="#g12" y="10880"/><use xlink:href="#g13" y="10897"/><use xlink:href="#g14" y="10914"/><use xlink:href="#g15" y="10931"/><use xlink:href="#g16" y="10948"/><use xlink:href="#g17" y="10965"/><use xlink:href="#g18" y="10982"/><rect x="0" y="10999" width="8" height="17" class="foreground"/><use xlink:href="#g2" y="10999"/></g><g><use xlink:href="#g1" y="11441"/><use xlink:href="#g3" y="11475"/><use xlink:href="#g4" y="11492"/><use xlink:href="#g5" y="11526"/><use xlink:href="#g6" y="11543"/><use xlink:href="#g7" y="11560"/><use xlink:href="#g8" y="11594"/><use xlink:href="#g9" y="11645"/><use xlink:href="#g10" y="11662"/><use xlink:href="#g11" y="11679"/><use xlink:href="#g12" y="11696"/><use xlink:href="#g13" y="11713"/><use xlink:href="#g14" y="11730"/><use xlink:href="#g15" y="11747"/><use xlink:href="#g16" y="11764"/><use xlink:href="#g17" y="11781"/><use xlink:href="#g18" y="11798"/><use xlink:href="#g19" y="11815"/><rect x="0" y="11832" width="8" height="17" class="foreground"/><use xlink:href="#g2" y="11832"/></g><g><use xlink:href="#g1" y="12257"/><use xlink:href="#g3" y="12291"/><use xlink:href="#g4" y="12308"/><use xlink:href="#g5" y="12342"/><use xlink:href="#g6" y="12359"/><use xlink:href="#g7" y="12376"/><use xlink:href="#g8" y="12410"/><use xlink:href="#g9" y="12461"/><use xlink:href="#g10" y="12478"/><use xlink:href="#g11" y="12495"/><use xlink:href="#g12" y="12512"/><use xlink:href="#g13" y="12529"/><use xlink:href="#g14" y="12546"/><use xlink:href="#g15" y="12563"/><use xlink:href="#g16" y="12580"/><use xlink:href="#g17" y="12597"/><use xlink:href="#g18" y="12614"/><use xlink:href="#g19" y="12631"/><use xlink:href="#g14" y="12648"/><use xlink:href="#g20" y="12665"/><use xlink:href="#g16" y="12682"/><use xlink:href="#g21" y="12699"/><use xlink:href="#g18" y="12716"/><use xlink:href="#g22" y="12733"/><rect x="0" y="12750" width="8" height="17" class="foreground"/><use xlink:href="#g2" y="12750"/></g><g><use xlink:href="#g1" y="13073"/><use xlink:href="#g3" y="13107"/><use xlink:href="#g4" y="13124"/><use xlink:href="#g5" y="13158"/><use xlink:href="#g6" y="13175"/><use xlink:href="#g7" y="13192"/><use xlink:href="#g8" y="13226"/><use xlink:href="#g9" y="13277"/><use xlink:href="#g10" y="13294"/><use xlink:href="#g11" y="13311"/><use xlink:href="#g12" y="13328"/><use xlink:href="#g13" y="13345"/><use xlink:href="#g14" y="13362"/><use xlink:href="#g15" y="13379"/><use xlink:href="#g16" y="13396"/><use xlink:href="#g17" y="13413"/><use xlink:href="#g18" y="13430"/><use xlink:href="#g19" y="13447"/><use xlink:href="#g14" y="13464"/><use xlink:href="#g20" y="13481"/><use xlink:href="#g16" y="13498"/><use xlink:href="#g21" y="13515"/><use xlink:href="#g18" y="13532"/><use xlink:href="#g22" y="13549"/><use xlink:href="#g23" y="13566"/><rect x="0" y="13600" width="8" height="17" class="foreground"/><use xlink:href="#g2" y="13600"/></g><g><use xlink:href="#g1" y="13889"/><use xlink:href="#g3" y="13923"/><use xlink:href="#g4" y="13940"/><use xlink:href="#g5" y="13974"/><use xlink:href="#g6" y="13991"/><use xlink:href="#g7" y="14008"/><use xlink:href="#g8" y="14042"/><use xlink:href="#g9" y="14093"/><use xlink:href="#g10" y="14110"/><use xlink:href="#g11" y="14127"/><use xlink:href="#g12" y="14144"/><use xlink:href="#g13" y="14161"/><use xlink:href="#g14" y="14178"/><use xlink:href="#g15" y="14195"/><use xlink:href="#g16" y="14212"/><use xlink:href="#g17" y="14229"/><use xlink:href="#g18" y="14246"/><use xlink:href="#g19" y="14263"/><use xlink:href="#g14" y="14280"/><use xlink:href="#g20" y="14297"/><use xlink:href="#g16" y="14314"/><use xlink:href="#g21" y="14331"/><use xlink:href="#g18" y="14348"/><use xlink:href="#g22" y="14365"/><use xlink:href="#g23" y="14382"/><use xlink:href="#g24" y="14433"/><rect x="0" y="14450" width="8" height="17" class="foreground"/><use xlink:href="#g2" y="14450"/></g><g><use xlink:href="#g1" y="14705"/><use xlink:href="#g3" y="14739"/><use xlink:href="#g4" y="14756"/><use xlink:href="#g5" y="14790"/><use xlink:href="#g6" y="14807"/><use xlink:href="#g7" y="14824"/><use xlink:href="#g8" y="14858"/><use xlink:href="#g9" y="14909"/><use xlink:href="#g10" y="14926"/><use xlink:href="#g11" y="14943"/><use xlink:href="#g12" y="14960"/><use xlink:href="#g13" y="14977"/><use xlink:href="#g14" y="14994"/><use xlink:href="#g15" y="15011"/><use xlink:href="#g16" y="15028"/><use xlink:href="#g17" y="15045"/><use xlink:href="#g18" y="15062"/><use xlink:href="#g19" y="15079"/><use xlink:href="#g14" y="15096"/><use xlink:href="#g20" y="15113"/><use xlink:href="#g16" y="15130"/><use xlink:href="#g21" y="15147"/><use xlink:href="#g18" y="15164"/><use xlink:href="#g22" y="15181"/><use xlink:href="#g23" y="15198"/><use xlink:href="#g24" y="15249"/><use xlink:href="#g25" y="15266"/><rect x="0" y="15283" width="8" height="17" class="foreground"/><use xlink:href="#g2" y="15283"/></g><g><use xlink:href="#g1" y="15521"/><use xlink:href="#g3" y="15555"/><use xlink:href="#g4" y="15572"/><use xlink:href="#g5" y="15606"/><use xlink:href="#g6" y="15623"/><use xlink:href="#g7" y="15640"/><use xlink:href="#g8" y="15674"/><use xlink:href="#g9" y="15725"/><use xlink:href="#g10" y="15742"/><use xlink:href="#g11" y="15759"/><use xlink:href="#g12" y="15776"/><use xlink:href="#g13" y="15793"/><use xlink:href="#g14" y="15810"/><use xlink:href="#g15" y="15827"/><use xlink:href="#g16" y="15844"/><use xlink:href="#g17" y="15861"/><use xlink:href="#g18" y="15878"/><use xlink:href="#g19" y="15895"/><use xlink:href="#g14" y="15912"/><use xlink:href="#g20" y="15929"/><use xlink:href="#g16" y="15946"/><use xlink:href="#g21" y="15963"/><use xlink:href="#g18" y="15980"/><use xlink:href="#g22" y="15997"/><use xlink:href="#g23" y="16014"/><use xlink:href="#g24" y="16065"/><use xlink:href="#g25" y="16082"/><use xlink:href="#g25" y="16099"/><use xlink:href="#g25" y="16116"/><use xlink:href="#g25" y="16133"/><use xlink:href="#g25" y="16150"/><use xlink:href="#g25" y="16167"/><use xlink:href="#g25" y="16184"/><rect x="0" y="16201" width="8" height="17" class="foreground"/><use xlink:href="#g2" y="16201"/></g><g><use xlink:href="#g1" y="16337"/><use xlink:href="#g3" y="16371"/><use xlink:href="#g4" y="16388"/><use xlink:href="#g5" y="16422"/><use xlink:href="#g6" y="16439"/><use xlink:href="#g7" y="16456"/><use xlink:href="#g8" y="16490"/><use xlink:href="#g9" y="16541"/><use xlink:href="#g10" y="16558"/><use xlink:href="#g11" y="16575"/><use xlink:href="#g12" y="16592"/><use xlink:href="#g13" y="16609"/><use xlink:href="#g14" y="16626"/><use xlink:href="#g15" y="16643"/><use xlink:href="#g16" y="16660"/><use xlink:href="#g17" y="16677"/><use xlink:href="#g18" y="16694"/><use xlink:href="#g19" y="16711"/><use xlink:href="#g14" y="16728"/><use xlink:href="#g20" y="16745"/><use xlink:href="#g16" y="16762"/><use xlink:href="#g21" y="16779"/><use xlink:href="#g18" y="16796"/><use xlink:href="#g22" y="16813"/><use xlink:href="#g23" y="16830"/><use xlink:href="#g24" y="16881"/><use xlink:href="#g25" y="16898"/><use xlink:href="#g25" y="16915"/><use xlink:href="#g25" y="16932"/><use xlink:href="#g25" y="16949"/><use xlink:href="#g25" y="16966"/><use xlink:href="#g25" y="16983"/><use xlink:href="#g25" y="17000"/><use xlink:href="#g25" y="17017"/><use xlink:href="#g25" y="17034"/><rect x="0" y="17051" width="8" height="17" class="foreground"/><use xlink:href="#g2" y="17051"/></g><g><use xlink:href="#g1" y="17153"/><use xlink:href="#g3" y="17187"/><use xlink:href="#g4" y="17204"/><use xlink:href="#g5" y="17238"/><use xlink:href="#g6" y="17255"/><use xlink:href="#g7" y="17272"/><use xlink:href="#g8" y="17306"/><use xlink:href="#g9" y="17357"/><use xlink:href="#g10" y="17374"/><use xlink:href="#g11" y="17391"/><use xlink:href="#g12" y="17408"/><use xlink:href="#g13" y="17425"/><use xlink:href="#g14" y="17442"/><use xlink:href="#g15" y="17459"/><use xlink:href="#g16" y="17476"/><use xlink:href="#g17" y="17493"/><use xlink:href="#g18" y="17510"/><use xlink:href="#g19" y="17527"/><use xlink:href="#g14" y="17544"/><use xlink:href="#g20" y="17561"/><use xlink:href="#g16" y="17578"/><use xlink:href="#g21" y="17595"/><use xlink:href="#g18" y="17612"/><use xlink:href="#g22" y="17629"/><use xlink:href="#g23" y="17646"/><use xlink:href="#g24" y="17697"/><use xlink:href="#g25" y="17714"/><use xlink:href="#g25" y="17731"/><use xlink:href="#g25" y="17748"/><use xlink:href="#g25" y="17765"/><use xlink:href="#g25" y="17782"/><use xlink:href="#g25" y="17799"/><use xlink:href="#g25" y="17816"/><use xlink:href="#g25" y="17833"/><use xlink:href="#g25" y="17850"/><use xlink:href="#g25" y="17867"/><rect x="0" y="17884" width="8" height="17" class="foreground"/><use xlink:href="#g2" y="17884"/></g><g><use xlink:href="#g1" y="17952"/><use xlink:href="#g3" y="17986"/><use xlink:href="#g4" y="18003"/><use xlink:href="#g5" y="18037"/><use xlink:href="#g6" y="18054"/><use xlink:href="#g7" y="18071"/><use xlink:href="#g8" y="18105"/><use xlink:href="#g9" y="18156"/><use xlink:href="#g10" y="18173"/><use xlink:href="#g11" y="18190"/><use xlink:href="#g12" y="18207"/><use xlink:href="#g13" y="18224"/><use xlink:href="#g14" y="18241"/><use xlink:href="#g15" y="18258"/><use xlink:href="#g16" y="18275"/><use xlink:href="#g17" y="18292"/><use xlink:href="#g18" y="18309"/><use xlink:href="#g19" y="18326"/><use xlink:href="#g14" y="18343"/><use xlink:href="#g20" y="18360"/><use xlink:href="#g16" y="18377"/><use xlink:href="#g21" y="18394"/><use xlink:href="#g18" y="18411"/><use xlink:href="#g22" y="18428"/><use xlink:href="#g23" y="18445"/><use xlink:href="#g24" y="18496"/><use xlink:href="#g25" y="18513"/><use xlink:href="#g25" y="18530"/><use xlink:href="#g25" y="18547"/><use xlink:href="#g25" y="18564"/><use xlink:href="#g25" y="18581"/><use xlink:href="#g25" y="18598"/><use xlink:href="#g25" y="18615"/><use xlink:href="#g25" y="18632"/><use xlink:href="#g25" y="18649"/><use xlink:href="#g25" y="18666"/><use xlink:href="#g25" y="18683"/><use xlink:href="#g25" y="18700"/><rect x="0" y="18717" width="8" height="17" class="foreground"/><use xlink:href="#g2" y="18717"/></g><g><use xlink:href="#g3" y="18785"/><use xlink:href="#g4" y="18802"/><use xlink:href="#g5" y="18836"/><use xlink:href="#g6" y="18853"/><use xlink:href="#g7" y="18870"/><use xlink:href="#g8" y="18904"/><use xlink:href="#g9" y="18955"/><use xlink:href="#g10" y="18972"/><use xlink:href="#g11" y="18989"/><use xlink:href="#g12" y="19006"/><use xlink:href="#g13" y="19023"/><use xlink:href="#g14" y="19040"/><use xlink:href="#g15" y="19057"/><use xlink:href="#g16" y="19074"/><use xlink:href="#g17" y="19091"/><use xlink:href="#g18" y="19108"/><use xlink:href="#g19" y="19125"/><use xlink:href="#g14" y="19142"/><use xlink:href="#g20" y="19159"/><use xlink:href="#g16" y="19176"/><use xlink:href="#g21" y="19193"/><use xlink:href="#g18" y="19210"/><use xlink:href="#g22" y="19227"/><use xlink:href="#g23" y="19244"/><use xlink:href="#g24" y="19295"/><use xlink:href="#g25" y="19312"/><use xlink:href="#g25" y="19329"/><use xlink:href="#g25" y="19346"/><use xlink:href="#g25" y="19363"/><use xlink:href="#g25" y="19380"/><use xlink:href="#g25" y="19397"/><use xlink:href="#g25" y="19414"/><use xlink:href="#g25" y="19431"/><use xlink:href="#g25" y="19448"/><use xlink:href="#g25" y="19465"/><use xlink:href="#g25" y="19482"/><use xlink:href="#g25" y="19499"/><use xlink:href="#g25" y="19516"/><rect x="0" y="19533" width="8" height="17" class="foreground"/><use xlink:href="#g2" y="19533"/></g><g><use xlink:href="#g3" y="19584"/><use xlink:href="#g4" y="19601"/><use xlink:href="#g5" y="19635"/><use xlink:href="#g6" y="19652"/><use xlink:href="#g7" y="19669"/><use xlink:href="#g8" y="19703"/><use xlink:href="#g9" y="19754"/><use xlink:href="#g10" y="19771"/><use xlink:href="#g11" y="19788"/><use xlink:href="#g12" y="19805"/><use xlink:href="#g13" y="19822"/><use xlink:href="#g14" y="19839"/><use xlink:href="#g15" y="19856"/><use xlink:href="#g16" y="19873"/><use xlink:href="#g17" y="19890"/><use xlink:href="#g18" y="19907"/><use xlink:href="#g19" y="19924"/><use xlink:href="#g14" y="19941"/><use xlink:href="#g20" y="19958"/><use xlink:href="#g16" y="19975"/><use xlink:href="#g21" y="19992"/><use xlink:href="#g18" y="20009"/><use xlink:href="#g22" y="20026"/><use xlink:href="#g23" y="20043"/><use xlink:href="#g24" y="20094"/><use xlink:href="#g25" y="20111"/><use xlink:href="#g25" y="20128"/><use xlink:href="#g25" y="20145"/><use xlink:href="#g25" y="20162"/><use xlink:href="#g25" y="20179"/><use xlink:href="#g25" y="20196"/><use xlink:href="#g25" y="20213"/><use xlink:href="#g25" y="20230"/><use xlink:href="#g25" y="20247"/><use xlink:href="#g25" y="20264"/><use xlink:href="#g25" y="20281"/><use xlink:href="#g25" y="20298"/><use xlink:href="#g25" y="20315"/><use xlink:href="#g25" y="20332"/><rect x="0" y="20349" width="8" height="17" class="foreground"/><use xlink:href="#g2" y="20349"/></g><g><use xlink:href="#g4" y="20400"/><use xlink:href="#g5" y="20434"/><use xlink:href="#g6" y="20451"/><use xlink:href="#g7" y="20468"/><use xlink:href="#g8" y="20502"/><use xlink:href="#g9" y="20553"/><use xlink:href="#g10" y="20570"/><use xlink:href="#g11" y="20587"/><use xlink:href="#g12" y="20604"/><use xlink:href="#g13" y="20621"/><use xlink:href="#g14" y="20638"/><use xlink:href="#g15" y="20655"/><use xlink:href="#g16" y="20672"/><use xlink:href="#g17" y="20689"/><use xlink:href="#g18" y="20706"/><use xlink:href="#g19" y="20723"/><use xlink:href="#g14" y="20740"/><use xlink:href="#g20" y="20757"/><use xlink:href="#g16" y="20774"/><use xlink:href="#g21" y="20791"/><use xlink:href="#g18" y="20808"/><use xlink:href="#g22" y="20825"/><use xlink:href="#g23" y="20842"/><use xlink:href="#g24" y="20893"/><use xlink:href="#g25" y="20910"/><use xlink:href="#g25" y="20927"/><use xlink:href="#g25" y="20944"/><use xlink:href="#g25" y="20961"/><use xlink:href="#g25" y="20978"/><use xlink:href="#g25" y="20995"/><use xlink:href="#g25" y="21012"/><use xlink:href="#g25" y="21029"/><use xlink:href="#g25" y="21046"/><use xlink:href="#g25" y="21063"/><use xlink:href="#g25" y="21080"/><use xlink:href="#g25" y="21097"/><use xlink:href="#g25" y="21114"/><use xlink:href="#g25" y="21131"/><use xlink:href="#g25" y="21148"/><rect x="0" y="21165" width="8" height="17" class="foreground"/><use xlink:href="#g2" y="21165"/></g><g><use xlink:href="#g5" y="21233"/><use xlink:href="#g6" y="21250"/><use xlink:href="#g7" y="21267"/><use xlink:href="#g8" y="21301"/><use xlink:href="#g9" y="21352"/><use xlink:href="#g10" y="21369"/><use xlink:href="#g11" y="21386"/><use xlink:href="#g12" y="21403"/><use xlink:href="#g13" y="21420"/><use xlink:href="#g14" y="21437"/><use xlink:href="#g15" y="21454"/><use xlink:href="#g16" y="21471"/><use xlink:href="#g17" y="21488"/><use xlink:href="#g18" y="21505"/><use xlink:href="#g19" y="21522"/><use xlink:href="#g14" y="21539"/><use xlink:href="#g20" y="21556"/><use xlink:href="#g16" y="21573"/><use xlink:href="#g21" y="21590"/><use xlink:href="#g18" y="21607"/><use xlink:href="#g22" y="21624"/><use xlink:href="#g23" y="21641"/><use xlink:href="#g24" y="21692"/><use xlink:href="#g25" y="21709"/><use xlink:href="#g25" y="21726"/><use xlink:href="#g25" y="21743"/><use xlink:href="#g25" y="21760"/><use xlink:href="#g25" y="21777"/><use xlink:href="#g25" y="21794"/><use xlink:href="#g25" y="21811"/><use xlink:href="#g25" y="21828"/><use xlink:href="#g25" y="21845"/><use xlink:href="#g25" y="21862"/><use xlink:href="#g25" y="21879"/><use xlink:href="#g25" y="21896"/><use xlink:href="#g25" y="21913"/><use xlink:href="#g25" y="21930"/><use xlink:href="#g25" y="21947"/><use xlink:href="#g25" y="21964"/><rect x="0" y="21981" width="8" height="17" class="foreground"/><use xlink:href="#g2" y="21981"/></g><g><use xlink:href="#g5" y="22032"/><use xlink:href="#g6" y="22049"/><use xlink:href="#g7" y="22066"/><use xlink:href="#g8" y="22100"/><use xlink:href="#g9" y="22151"/><use xlink:href="#g10" y="22168"/><use xlink:href="#g11" y="22185"/><use xlink:href="#g12" y="22202"/><use xlink:href="#g13" y="22219"/><use xlink:href="#g14" y="22236"/><use xlink:href="#g15" y="22253"/><use xlink:href="#g16" y="22270"/><use xlink:href="#g17" y="22287"/><use xlink:href="#g18" y="22304"/><use xlink:href="#g19" y="22321"/><use xlink:href="#g14" y="22338"/><use xlink:href="#g20" y="22355"/><use xlink:href="#g16" y="22372"/><use xlink:href="#g21" y="22389"/><use xlink:href="#g18" y="22406"/><use xlink:href="#g22" y="22423"/><use xlink:href="#g23" y="22440"/><use xlink:href="#g24" y="22491"/><use xlink:href="#g25" y="22508"/><use xlink:href="#g25" y="22525"/><use xlink:href="#g25" y="22542"/><use xlink:href="#g25" y="22559"/><use xlink:href="#g25" y="22576"/><use xlink:href="#g25" y="22593"/><use xlink:href="#g25" y="22610"/><use xlink:href="#g25" y="22627"/><use xlink:href="#g25" y="22644"/><use xlink:href="#g25" y="22661"/><use xlink:href="#g25" y="22678"/><use xlink:href="#g25" y="22695"/><use xlink:href="#g25" y="22712"/><use xlink:href="#g25" y="22729"/><use xlink:href="#g25" y="22746"/><use xlink:href="#g25" y="22763"/><use xlink:href="#g25" y="22780"/><rect x="0" y="22797" width="8" height="17" class="foreground"/><use xlink:href="#g2" y="22797"/></g><g><use xlink:href="#g6" y="22848"/><use xlink:href="#g7" y="22865"/><use xlink:href="#g8" y="22899"/><use xlink:href="#g9" y="22950"/><use xlink:href="#g10" y="22967"/><use xlink:href="#g11" y="22984"/><use xlink:href="#g12" y="23001"/><use xlink:href="#g13" y="23018"/><use xlink:href="#g14" y="23035"/><use xlink:href="#g15" y="23052"/><use xlink:href="#g16" y="23069"/><use xlink:href="#g17" y="23086"/><use xlink:href="#g18" y="23103"/><use xlink:href="#g19" y="23120"/><use xlink:href="#g14" y="23137"/><use xlink:href="#g20" y="23154"/><use xlink:href="#g16" y="23171"/><use xlink:href="#g21" y="23188"/><use xlink:href="#g18" y="23205"/><use xlink:href="#g22" y="23222"/><use xlink:href="#g23" y="23239"/><use xlink:href="#g24" y="23290"/><use xlink:href="#g25" y="23307"/><use xlink:href="#g25" y="23324"/><use xlink:href="#g25" y="23341"/><use xlink:href="#g25" y="23358"/><use xlink:href="#g25" y="23375"/><use xlink:href="#g25" y="23392"/><use xlink:href="#g25" y="23409"/><use xlink:href="#g25" y="23426"/><use xlink:href="#g25" y="23443"/><use xlink:href="#g25" y="23460"/><use xlink:href="#g25" y="23477"/><use xlink:href="#g25" y="23494"/><use xlink:href="#g25" y="23511"/><use xlink:href="#g25" y="23528"/><use xlink:href="#g25" y="23545"/><use xlink:href="#g25" y="23562"/><use xlink:href="#g25" y="23579"/><use xlink:href="#g25" y="23596"/><rect x="0" y="23613" width="8" height="17" class="foreground"/><use xlink:href="#g2" y="23613"/></g><g><use xlink:href="#g8" y="23681"/><use xlink:href="#g9" y="23732"/><use xlink:href="#g10" y="23749"/><use xlink:href="#g11" y="23766"/><use xlink:href="#g12" y="23783"/><use xlink:href="#g13" y="23800"/><use xlink:href="#g14" y="23817"/><use xlink:href="#g15" y="23834"/><use xlink:href="#g16" y="23851"/><use xlink:href="#g17" y="23868"/><use xlink:href="#g18" y="23885"/><use xlink:href="#g19" y="23902"/><use xlink:href="#g14" y="23919"/><use xlink:href="#g20" y="23936"/><use xlink:href="#g16" y="23953"/><use xlink:href="#g21" y="23970"/><use xlink:href="#g18" y="23987"/><use xlink:href="#g22" y="24004"/><use xlink:href="#g23" y="24021"/><use xlink:href="#g24" y="24072"/><use xlink:href="#g25" y="24089"/><use xlink:href="#g25" y="24106"/><use xlink:href="#g25" y="24123"/><use xlink:href="#g25" y="24140"/><use xlink:href="#g25" y="24157"/><use xlink:href="#g25" y="24174"/><use xlink:href="#g25" y="24191"/><use xlink:href="#g25" y="24208"/><use xlink:href="#g25" y="24225"/><use xlink:href="#g25" y="24242"/><use xlink:href="#g25" y="24259"/><use xlink:href="#g25" y="24276"/><use xlink:href="#g25" y="24293"/><use xlink:href="#g25" y="24310"/><use xlink:href="#g25" y="24327"/><use xlink:href="#g25" y="24344"/><use xlink:href="#g25" y="24361"/><use xlink:href="#g25" y="24378"/><use xlink:href="#g25" y="24395"/><use xlink:href="#g25" y="24412"/><rect x="0" y="24429" width="8" height="17" class="foreground"/><use xlink:href="#g2" y="24429"/></g><g><use xlink:href="#g8" y="24480"/><use xlink:href="#g9" y="24531"/><use xlink:href="#g10" y="24548"/><use xlink:href="#g11" y="24565"/><use xlink:href="#g12" y="24582"/><use xlink:href="#g13" y="24599"/><use xlink:href="#g14" y="24616"/><use xlink:href="#g15" y="24633"/><use xlink:href="#g16" y="24650"/><use xlink:href="#g17" y="24667"/><use xlink:href="#g18" y="24684"/><use xlink:href="#g19" y="24701"/><use xlink:href="#g14" y="24718"/><use xlink:href="#g20" y="24735"/><use xlink:href="#g16" y="24752"/><use xlink:href="#g21" y="24769"/><use xlink:href="#g18" y="24786"/><use xlink:href="#g22" y="24803"/><use xlink:href="#g23" y="24820"/><use xlink:href="#g24" y="24871"/><use xlink:href="#g25" y="24888"/><use xlink:href="#g25" y="24905"/><use xlink:href="#g25" y="24922"/><use xlink:href="#g25" y="24939"/><use xlink:href="#g25" y="24956"/><use xlink:href="#g25" y="24973"/><use xlink:href="#g25" y="24990"/><use xlink:href="#g25" y="25007"/><use xlink:href="#g25" y="25024"/><use xlink:href="#g25" y="25041"/><use xlink:href="#g25" y="25058"/><use xlink:href="#g25" y="25075"/><use xlink:href="#g25" y="25092"/><use xlink:href="#g25" y="25109"/><use xlink:href="#g25" y="25126"/><use xlink:href="#g25" y="25143"/><use xlink:href="#g25" y="25160"/><use xlink:href="#g25" y="25177"/><use xlink:href="#g25" y="25194"/><use xlink:href="#g25" y="25211"/><use xlink:href="#g26" y="25228"/><rect x="0" y="25245" width="8" height="17" class="foreground"/><use xlink:href="#g2" y="25245"/></g><g><use xlink:href="#g10" y="25296"/><use xlink:href="#g11" y="25313"/><use xlink:href="#g12" y="25330"/><use xlink:href="#g13" y="25347"/><use xlink:href="#g14" y="25364"/><use xlink:href="#g15" y="25381"/><use xlink:href="#g16" y="25398"/><use xlink:href="#g17" y="25415"/><use xlink:href="#g18" y="25432"/><use xlink:href="#g19" y="25449"/><use xlink:href="#g14" y="25466"/><use xlink:href="#g20" y="25483"/><use xlink:href="#g16" y="25500"/><use xlink:href="#g21" y="25517"/><use xlink:href="#g18" y="25534"/><use xlink:href="#g22" y="25551"/><use xlink:href="#g23" y="25568"/><use xlink:href="#g24" y="25619"/><use xlink:href="#g25" y="25636"/><use xlink:href="#g25" y="25653"/><use xlink:href="#g25" y="25670"/><use xlink:href="#g25" y="25687"/><use xlink:href="#g25" y="25704"/><use xlink:href="#g25" y="25721"/><use xlink:href="#g25" y="25738"/><use xlink:href="#g25" y="25755"/><use xlink:href="#g25" y="25772"/><use xlink:href="#g25" y="25789"/><use xlink:href="#g25" y="25806"/><use xlink:href="#g25" y="25823"/><use xlink:href="#g25" y="25840"/><use xlink:href="#g25" y="25857"/><use xlink:href="#g25" y="25874"/><use xlink:href="#g25" y="25891"/><use xlink:href="#g25" y="25908"/><use xlink:href="#g25" y="25925"/><use xlink:href="#g25" y="25942"/><use xlink:href="#g25" y="25959"/><use xlink:href="#g26" y="25976"/><use xlink:href="#g27" y="25993"/><use xlink:href="#g28" y="26044"/><rect x="0" y="26061" width="8" height="17" class="foreground"/><use xlink:href="#g2" y="26061"/></g></g></svg>
</svg>